<svg xmlns="http://www.w3.org/2000/svg" viewBox="0 0 24 24"><defs><style>.cls-1{fill:#fff;}.cls-1,.cls-2{stroke:#25bdd8;stroke-miterlimit:10;}.cls-2{fill:none;}</style></defs><title>Lessons (Active)</title><g id="Nav_Icons" data-name="Nav Icons"><path class="cls-1" d="M16.22,6.25a11.67,11.67,0,0,0-2.83.34A7.53,7.53,0,0,0,12,7a.37.37,0,0,1-.32,0,7.53,7.53,0,0,0-1.4-.46,11.67,11.67,0,0,0-2.83-.34H2.13c-.16,0-.29.09-.29.21V19c0,.12.13.21.29.21H8.71a6,6,0,0,1,2.94.78A.38.38,0,0,0,12,20,6,6,0,0,1,15,19.18h6.58c.16,0,.29-.09.29-.21V6.46c0-.12-.13-.21-.29-.21Z"/><path class="cls-1" d="M15.34,5a8.06,8.06,0,0,0-2.26.31A5.44,5.44,0,0,0,12,5.74a.26.26,0,0,1-.26,0,5.44,5.44,0,0,0-1.12-.43A8.06,8.06,0,0,0,8.32,5H4.07a.22.22,0,0,0-.23.2V16.89a.22.22,0,0,0,.23.2H9.33a4.27,4.27,0,0,1,2.35.73.26.26,0,0,0,.29,0,4.27,4.27,0,0,1,2.35-.73H19.6a.22.22,0,0,0,.23-.2V5.2A.22.22,0,0,0,19.6,5Z"/><line class="cls-2" x1="11.83" y1="5.62" x2="11.83" y2="17.71"/></g></svg>